<?xml version="1.0" encoding="utf-8"?>
<!-- Generator: Adobe Illustrator 16.0.0, SVG Export Plug-In . SVG Version: 6.00 Build 0)  -->
<!DOCTYPE svg PUBLIC "-//W3C//DTD SVG 1.1//EN" "http://www.w3.org/Graphics/SVG/1.1/DTD/svg11.dtd">
<svg version="1.1" id="Layer_1" xmlns="http://www.w3.org/2000/svg" xmlns:xlink="http://www.w3.org/1999/xlink" x="0px" y="0px"
	 width="290px" height="60px" viewBox="0 0 290 60" enable-background="new 0 0 290 60" xml:space="preserve">
<g>
	<g>
		<path d="M89.507,0.767c-15.41,0-28.354,12.979-28.354,29.093c0,15.678,12.943,28.612,28.354,28.612
			c16.026,0,28.398-12.935,28.398-28.612C117.905,13.745,105.533,0.767,89.507,0.767z M89.507,48.036
			c-9.73,0-17.744-8.042-17.744-18.172c0-10.441,8.014-18.662,17.744-18.662c10.17,0,18.184,8.221,18.184,18.662
			C107.69,39.994,99.677,48.036,89.507,48.036z"/>
		<polygon points="267.712,29.421 285.896,2.344 274.403,2.344 261.416,21.716 249.483,2.344 236.716,2.344 255.341,30.302 
			237.112,57.468 248.647,57.468 257.497,44.392 260.976,38.843 273.964,57.468 286.731,57.468 		"/>
		<path d="M211.796,33.031c6.691-2.333,10.654-7.704,10.654-14.397c-0.439-10.038-7-16.73-16.73-16.73h-19.505v55.564h10.171V33.031
			l21.496,24.437h12.328l-20.572-23.556L211.796,33.031z M195.944,25.767V10.929h8.322c4.49,0,7.529,3.215,7.529,7.705
			c0,4.535-3.039,7.133-7.529,7.133H195.944z"/>
		<path d="M159.568,27.255c-5.376-2.369-7.409-3.108-11.54-4.738c-4.162-1.642-6.424-3.502-6.424-5.836
			c0-2.906,2.602-5.84,8.236-5.752c5.813,0.088,8.689,3.131,9.658,4.056l8.307-6.389l-0.051,0.013
			c-3.611-4.359-9.416-8.025-17.914-7.85c-11.535,0.221-18.527,7.991-18.924,16.093c-0.309,3.39,1.203,7.103,3.752,9.835
			c2.346,2.513,6.196,4.49,11.914,6.521c6.561,2.33,13.365,3.463,13.029,9.607c-0.152,2.786-3.211,6.654-10.831,5.929
			c-6.14-0.584-10.294-5.627-11.483-6.992l-8.029,5.683c2.345,4.381,10.834,11.256,21.261,11.256
			c11.538,0,19.782-7.383,19.782-17.68C170.312,34.759,166.111,30.138,159.568,27.255z"/>
	</g>
	<path fill="#010101" d="M43.634,42.885c-3.088,2.684-7.113,4.313-11.516,4.313c-9.693,0-17.579-7.886-17.579-17.579
		c0-9.692,7.886-17.579,17.579-17.579c3.912,0,7.527,1.285,10.451,3.455l9.23-6.939l-1.33-1.18
		c-4.99-4.125-11.387-6.607-18.352-6.607c-15.908,0-28.851,12.942-28.851,28.851c0,15.909,12.942,28.851,28.851,28.851
		c7.318,0,14.006-2.745,19.098-7.252l1.278-1.229L43.634,42.885z"/>
</g>
</svg>
